PathFileType	4	(X/Y/Z)	C:\ABL_Data\ExoAging\Piloting\Dec 6 2019\Generated_files\static_2.trc
DataRate	CameraRate	NumFrames	NumMarkers	Units	OrigDataRate	OrigDataStartFrame	OrigNumFrames
100.00	100.00	       18	20	mm	100.00	285	       568
Frame#	Time	R.Acromium			L.Acromium			Sternum			R.ASIS			R.PSIS			S2			L.PSIS			L.ASIS			R.Knee			R.Ankle			L.Knee			L.Ankle			R.MKnee			R.MAnkle			L.MKnee			L.MAnkle			C7			T12			Clav			R.Back			
		X1	Y1	Z1	X2	Y2	Z2	X3	Y3	Z3	X4	Y4	Z4	X5	Y5	Z5	X6	Y6	Z6	X7	Y7	Z7	X8	Y8	Z8	X9	Y9	Z9	X10	Y10	Z10	X11	Y11	Z11	X12	Y12	Z12	X13	Y13	Z13	X14	Y14	Z14	X15	Y15	Z15	X16	Y16	Z16	X17	Y17	Z17	X18	Y18	Z18	X19	Y19	Z19	X20	Y20	Z20	

285	2.840	840.22699	383.97922	1494.42834	847.39661	788.13635	1486.44153				912.56775	449.05453	1005.13867	729.04602	527.04596	1046.94202	710.64380	580.70892	1022.63751	733.08282	630.22943	1050.57788	918.54144	708.17456	1018.10889	818.33374	383.00812	512.35126	759.12311	378.44528	86.42026	818.80829	765.01886	509.64594	766.72852	775.49976	78.90722	840.23547	495.23157	489.25690	803.67664	458.45383	92.04802	829.51862	651.78119	486.89890	783.73279	685.36188	93.59618	757.46924	571.20441	1555.71179	734.54181	581.29059	1188.02222	918.42786	577.99243	1460.80212	693.98468	456.99509	1394.07068	
286	2.850	840.24915	384.01868	1494.37512	847.51685	788.10669	1486.41284				912.67542	449.07947	1005.13837	729.09332	527.02094	1046.99280	710.68439	580.70465	1022.66791	733.15302	630.23267	1050.60132	918.57715	708.13367	1018.14655	818.35370	383.00214	512.39172	759.12115	378.45792	86.47677	818.93170	765.02222	509.64005	766.75555	775.51495	78.88211	840.24811	495.23911	489.29642	803.66864	458.47717	92.13100	829.59052	651.93561	486.85181	783.75134	685.38184	93.59132	757.53931	571.23828	1555.75110	734.57983	581.31049	1188.03601	918.49652	578.00549	1460.80811	693.99323	457.01270	1394.08801	
287	2.860	840.29834	384.07001	1494.40100	847.63794	788.20569	1486.43506				912.76093	449.07251	1005.15692	729.16705	527.01794	1047.00708	710.73639	580.68188	1022.67426	733.25739	630.21545	1050.60217	918.63684	708.19836	1018.08453	818.38892	383.02390	512.41302	759.13336	378.47046	86.49011	819.01276	765.03442	509.64511	766.78174	775.45502	78.89797	840.28058	495.27155	489.30585	803.71906	458.43741	92.08918	829.66235	651.83551	486.90970	783.77863	685.37756	93.58654	757.63684	571.33600	1555.74780	734.61792	581.30927	1188.02405	918.59393	577.97394	1460.78040	694.04272	457.07465	1394.11511	
288	2.870	840.34766	384.08337	1494.44263	847.72009	788.24463	1486.46582				912.83020	449.11353	1005.11188	729.22528	527.02405	1046.97095	710.79651	580.68695	1022.63855	733.33972	630.19324	1050.54358	918.67505	708.19928	1018.07031	818.42804	383.01898	512.36212	759.13940	378.44104	86.46025	819.07977	765.06354	509.62793	766.80090	775.48602	78.88470	840.36066	495.25684	489.32809	803.70898	458.45392	92.04275	829.79504	651.82568	486.89407	783.84021	685.37524	93.55549	757.71136	571.31458	1555.70886	734.73590	581.23077	1188.00269	918.65442	578.05426	1460.73523	694.11603	457.05850	1394.12537	
289	2.880	840.39014	384.08121	1494.47107	847.79309	788.22363	1486.45154				912.89575	449.12164	1005.11182	729.26501	527.00311	1046.96777	710.83411	580.67487	1022.64178	733.42023	630.14954	1050.53674	918.75006	708.21484	1018.07037	818.49402	383.01282	512.34222	759.13654	378.44040	86.44467	819.11292	765.07391	509.65616	766.82434	775.48517	78.92133	840.36151	495.23746	489.32364	803.72662	458.46335	92.08978	829.82458	651.83838	486.91791	783.85138	685.37006	93.56195	757.78168	571.43109	1555.70337	734.76550	581.24823	1187.95764	918.73938	578.06189	1460.75342	694.14185	457.10443	1394.14465	
290	2.890	840.42499	384.09845	1494.55444	847.83112	788.35529	1486.45667				912.95636	449.11392	1005.12689	729.30444	527.00330	1046.99744	710.85803	580.66693	1022.63110	733.47113	630.11530	1050.56665	918.78302	708.14612	1018.12067	818.54962	383.04129	512.34540	759.15869	378.45764	86.44225	819.19531	765.02765	509.63235	766.79309	775.47217	78.91500	840.36896	495.25244	489.28458	803.71252	458.43854	92.05048	829.85730	651.88654	486.89664	783.85016	685.38226	93.55634	757.85138	571.40088	1555.75562	734.82819	581.23145	1187.99902	918.81024	578.06213	1460.79272	694.16925	457.10800	1394.17761	
291	2.900	840.44745	384.24844	1494.57776	847.96991	788.31409	1486.48413				913.04468	449.15134	1005.15472	729.34338	527.01526	1047.01636	710.89825	580.65997	1022.63531	733.53418	630.17108	1050.54248	918.84558	708.22253	1018.06281	818.57373	383.03281	512.36700	759.16516	378.48041	86.45393	819.26080	765.01758	509.63330	766.82660	775.48065	78.91404	840.38800	495.31256	489.26450	803.70117	458.46255	92.04924	829.93506	651.86615	486.93466	783.84155	685.37579	93.58156	757.91840	571.47430	1555.79785	734.87695	581.25317	1187.99731	918.91046	577.94366	1460.80688	694.22363	457.11819	1394.21313	
292	2.910	840.49573	384.22818	1494.53284	848.00958	788.37976	1486.43640				913.08734	449.13016	1005.12537	729.39435	527.01691	1047.00757	710.95007	580.67743	1022.62921	733.61023	630.17255	1050.54883	918.89136	708.21039	1018.06073	818.63470	383.05258	512.32697	759.16650	378.49670	86.44319	819.29486	765.04248	509.65204	766.81555	775.45880	78.92912	840.46112	495.26752	489.23700	803.73090	458.48032	92.05202	829.99408	651.84528	486.95285	783.86322	685.39301	93.60615	757.96893	571.50494	1555.77563	734.93542	581.27356	1188.00500	918.97571	578.15784	1460.77698	694.24646	457.16068	1394.21326	
293	2.920	840.53638	384.14917	1494.60742	848.07263	788.41412	1486.37598				913.15430	449.12073	1005.12488	729.43762	526.97839	1046.98999	710.99908	580.67200	1022.63745	733.64642	630.18091	1050.51416	918.92297	708.22968	1018.02869	818.66479	383.05524	512.33069	759.16754	378.49268	86.46902	819.33063	765.04932	509.61954	766.81958	775.44794	78.92370	840.53772	495.29089	489.23901	803.73187	458.47845	92.06413	830.02887	651.85168	486.96082	783.86804	685.36816	93.60751	758.02478	571.53546	1555.77832	735.02094	581.28186	1187.99475	919.04706	578.07324	1460.76306	694.27631	457.16647	1394.23877	
294	2.930	840.60925	384.18576	1494.69458	848.10724	788.49292	1486.37292				913.22961	449.10846	1005.14758	729.48718	526.99426	1046.97363	711.02771	580.69238	1022.62085	733.70947	630.20917	1050.48682	918.97150	708.22766	1018.02472	818.70599	383.04471	512.35333	759.16815	378.47787	86.47928	819.35315	765.03784	509.62531	766.82111	775.47559	78.91243	840.44354	495.29797	489.23352	803.73999	458.49069	92.06998	830.05487	651.83984	486.97815	783.87134	685.37103	93.60774	758.09607	571.64191	1555.74377	735.03650	581.28748	1187.96423	919.10669	578.04047	1460.73840	694.30737	457.16537	1394.28491	
295	2.940	840.67499	384.27597	1494.68176	848.15649	788.49597	1486.36890				913.26752	449.10321	1005.13550	729.52783	526.98853	1046.94556	711.10529	580.66138	1022.59631	733.75214	630.16095	1050.47778	918.98981	708.23059	1018.00153	818.70569	383.05978	512.34308	759.17780	378.48102	86.44420	819.37677	765.04028	509.62729	766.79718	775.46625	78.92009	840.49866	495.33588	489.24335	803.72552	458.48309	92.04308	830.05408	651.82928	486.97974	783.84802	685.37274	93.60822	758.14038	571.65234	1555.70984	735.11176	581.27563	1187.94861	919.17694	577.97357	1460.72803	694.38434	457.19656	1394.23621	
296	2.950	840.69232	384.27170	1494.65308	848.20764	788.49585	1486.36108				913.33539	449.09167	1005.16309	729.59534	526.97717	1046.94299	711.13904	580.66241	1022.60248	733.80621	630.14844	1050.46497	919.04291	708.22034	1018.03363	818.70380	383.04480	512.34644	759.14978	378.46313	86.44807	819.39844	765.04449	509.64444	766.78485	775.45813	78.93573	840.53772	495.29456	489.27356	803.71155	458.49469	92.04762	830.13629	651.86554	486.94055	783.82239	685.35785	93.61249	758.17389	571.65564	1555.69165	735.11908	581.29187	1187.91528	919.22369	578.13000	1460.70947	694.40393	457.18494	1394.24573	
297	2.960	840.79211	384.34869	1494.74292	848.27112	788.53284	1486.38318				913.41272	449.10599	1005.17450	729.66992	526.97223	1046.97571	711.20563	580.63574	1022.62524	733.85333	630.14301	1050.49988	919.09705	708.17529	1018.02106	818.69312	383.06784	512.42072	759.15417	378.49139	86.48147	819.41193	765.06140	509.65988	766.79340	775.44586	78.95250	840.53156	495.27924	489.27664	803.72125	458.49155	92.06780	830.13672	651.80328	486.99405	783.82336	685.36853	93.62896	758.22369	571.70062	1555.74585	735.16785	581.27399	1187.93286	919.29749	578.02899	1460.72485	694.44580	457.17612	1394.29858	
298	2.970	840.82751	384.31644	1494.74084	848.32739	788.59528	1486.34692				913.47821	449.12726	1005.11096	729.76276	526.95880	1047.01282	711.27161	580.62238	1022.65594	733.91205	630.16010	1050.52344	919.18976	708.15796	1018.04724	818.75336	383.04541	512.34857	759.17340	378.49634	86.47900	819.44177	765.02203	509.64072	766.84271	775.43500	78.94201	840.58014	495.32336	489.29794	803.74884	458.51370	92.06270	830.12408	651.83636	486.97723	783.88489	685.35693	93.58543	758.28961	571.80054	1555.78040	735.22919	581.27747	1187.96155	919.36804	578.03259	1460.75745	694.46490	457.24783	1394.30347	
299	2.980	840.89728	384.37228	1494.70300	848.35352	788.65942	1486.36633				913.55328	449.09918	1005.09222	729.77716	526.92828	1047.02283	711.31610	580.59509	1022.66229	733.96796	630.12482	1050.52454	919.27777	708.13818	1018.03741	818.74744	383.03714	512.31494	759.18835	378.48038	86.46003	819.45660	765.04626	509.67877	766.85278	775.43640	78.93835	840.61523	495.30032	489.29187	803.77087	458.44672	92.06136	830.22998	651.83142	486.97675	783.90869	685.37408	93.57512	758.31915	571.79675	1555.74194	735.26245	581.27069	1187.94971	919.42682	578.00690	1460.73206	694.50751	457.20737	1394.32031	
300	2.990	840.98151	384.43307	1494.78040	848.37360	788.71136	1486.27222				913.62830	449.09558	1005.09900	729.84680	526.90118	1047.02991	711.36481	580.60657	1022.67078	734.00830	630.17682	1050.54431	919.32043	708.13751	1017.99390	818.76392	383.05240	512.33362	759.18994	378.48547	86.47718	819.50500	765.00562	509.60092	766.91040	775.39130	78.89738	840.62878	495.30853	489.35242	803.74921	458.45200	92.05573	830.24371	651.81409	486.99619	783.93286	685.34998	93.54307	758.38928	571.90796	1555.69946	735.30701	581.27789	1187.92773	919.46899	577.99768	1460.68433	694.53296	457.23792	1394.35901	
301	3.000	841.04242	384.46619	1494.85974	848.41138	788.80817	1486.24988				913.67883	449.09341	1005.10413	729.93384	526.89282	1047.02551	711.42584	580.59161	1022.66882	734.05725	630.15814	1050.53406	919.34930	708.13971	1017.95734	818.77521	383.04333	512.34991	759.17548	378.47366	86.47607	819.49115	765.01459	509.61389	766.82666	775.41370	78.95016	840.63965	495.28546	489.33102	803.76740	458.48132	92.04575	830.24591	651.87042	486.94150	783.90363	685.37524	93.58034	758.43768	572.00262	1555.68335	735.34259	581.28766	1187.87463	919.51746	578.02216	1460.67725	694.58362	457.26532	1394.36755	
302	3.010	841.08362	384.51013	1494.83728	848.47034	788.83850	1486.24341				913.69946	449.06372	1005.08093	729.97632	526.90338	1047.02380	711.49084	580.59149	1022.66675	734.08875	630.13452	1050.53918	919.40625	708.13098	1017.97516	818.81659	383.02161	512.34436	759.18036	378.46161	86.49529	819.50421	765.02740	509.64868	766.84509	775.39520	78.94071	840.61035	495.25439	489.30188	803.75238	458.49072	92.08415	830.20557	651.76501	486.99350	783.88788	685.34265	93.60136	758.48224	572.02850	1555.63281	735.38025	581.29169	1187.89868	919.56482	577.96930	1460.66638	694.62872	457.27579	1394.35522	
